<svg width="59" height="59" viewBox="0 0 59 59" fill="none" xmlns="http://www.w3.org/2000/svg">
<path d="M24.957 32.3379C24.957 33.9781 23.6295 35.3056 21.9893 35.3056C20.3491 35.3056 19.0216 33.9781 19.0216 32.3379C19.0216 30.6977 20.3491 29.3702 21.9893 29.3702C23.6295 29.3702 24.957 30.7036 24.957 32.3379ZM37.0107 29.3702C35.3705 29.3702 34.043 30.6977 34.043 32.3379C34.043 33.9781 35.3705 35.3056 37.0107 35.3056C38.6509 35.3056 39.9784 33.9781 39.9784 32.3379C39.9784 30.7036 38.6509 29.3702 37.0107 29.3702ZM58.41 30.6859V36.3263C58.41 39.1583 56.1149 41.4534 53.2829 41.4534H49.56C45.8725 51.6958 36.4561 57.879 29.5 57.879C22.5439 57.879 13.1275 51.6958 9.44 41.4593H5.7171C2.8851 41.4593 0.589996 39.1642 0.589996 36.3322V30.6918C0.589996 28.7448 1.6756 27.0456 3.2804 26.1783C3.3335 18.172 5.6699 11.9121 10.2306 7.5933C14.75 3.2981 21.2341 1.121 29.5 1.121C37.7659 1.121 44.25 3.2981 48.7694 7.5874C53.3301 11.9121 55.6665 18.1661 55.7196 26.1724C57.3244 27.0397 58.41 28.7389 58.41 30.6859ZM47.554 32.3615C47.554 31.0399 47.4891 29.8009 47.3888 28.6032C45.1114 26.5205 40.9814 24.9393 35.7658 24.3552C36.4502 25.1222 37.0402 26.137 37.4001 27.4704C34.2082 24.957 27.9365 25.5529 23.1929 19.9243C22.9215 19.6116 22.6855 19.3107 22.4849 19.0334C22.4849 19.0275 22.479 19.0275 22.479 19.0216C21.6353 17.8829 21.3462 17.2044 21.3285 17.9537C21.1869 24.426 16.6026 29.4705 11.505 30.1844C11.4755 30.8983 11.446 31.6122 11.446 32.3674C11.446 35.105 11.8944 37.5948 12.6496 39.8427C15.5111 43.2942 20.237 44.2677 24.4201 44.5273C25.1989 43.2942 26.9394 42.4269 28.969 42.4269C31.7184 42.4269 33.9486 44.0081 33.9486 45.961C33.9486 47.9139 31.7184 49.4951 28.969 49.4951C26.8509 49.4951 25.0514 48.557 24.3257 47.2354C21.3993 47.0643 18.1897 46.5687 15.3223 45.2176C19.3579 51.1471 25.6001 54.2859 29.5 54.2859C35.6301 54.2859 47.554 46.5451 47.554 32.3615ZM52.6339 25.5588C52.3094 11.5817 44.3267 4.2008 29.5 4.2008C14.6733 4.2008 6.6906 11.5817 6.3661 25.5588H8.3367C9.0565 20.8506 10.5846 16.9743 12.8974 13.9948C16.5908 9.2512 22.1781 6.844 29.5 6.844C36.8219 6.844 42.4092 9.2512 46.0967 13.9948C48.4095 16.9743 49.9376 20.8447 50.6574 25.5588H52.6339Z" fill="#C91111"/>
</svg>
