<svg width="59" height="59" viewBox="0 0 59 59" fill="none" xmlns="http://www.w3.org/2000/svg">
<g clip-path="url(#clip0_102_365)">
<path d="M56.4918 9.39038H2.50835C1.12514 9.39038 0 10.5155 0 11.8984V18.4587V28.7817V47.1016C0 48.4845 1.12514 49.6096 2.50835 49.6096H56.4918C57.8749 49.6096 59.0002 48.4845 59.0002 47.1016V28.7817V18.4587V11.8984C59 10.5155 57.8749 9.39038 56.4918 9.39038ZM9.47418 42.1906H6.96047V34.3143H9.47418V42.1906ZM14.5016 42.1906H11.9879V34.3143H14.5016V42.1906ZM19.529 42.1906H17.0153V34.3143H19.529V42.1906ZM46.7177 43.4029C45.7925 43.4029 44.9034 43.1262 44.1512 42.6129C43.3989 43.1261 42.5097 43.4029 41.5845 43.4029C39.0674 43.4029 37.0198 41.3551 37.0198 38.8378C37.0198 36.3206 39.0674 34.2728 41.5845 34.2728C42.5097 34.2728 43.3989 34.5495 44.1512 35.0628C44.9034 34.5495 45.7925 34.2728 46.7177 34.2728C49.2349 34.2728 51.2829 36.3206 51.2829 38.8378C51.2831 41.3549 49.2351 43.4029 46.7177 43.4029ZM57.3242 27.106H1.67581V20.1347H57.3242V27.106Z" fill="#C91111"/>
</g>
<defs>
<clipPath id="clip0_102_365">
<rect width="59" height="59" fill="white"/>
</clipPath>
</defs>
</svg>
