<svg width="55" height="55" viewBox="0 0 55 55" fill="none" xmlns="http://www.w3.org/2000/svg">
<path d="M26.3082 0.611067C23.9151 0.992216 21.4803 2.20992 19.8286 3.87201C17.5098 6.19081 16.3878 9.32471 16.5253 13.073C16.5677 14.2164 16.5462 14.4496 16.3768 14.7774C15.6888 16.1326 16.8427 19.7219 18.2826 20.6751C18.6109 20.8868 18.7484 21.0986 19.0344 21.8185C20.8978 26.4347 24.7407 29.3783 28.2772 28.8805C31.4958 28.4251 34.3866 25.7675 35.9959 21.8075C36.2714 21.1195 36.4298 20.8863 36.7054 20.7064C37.097 20.4738 37.7432 19.6477 38.0925 18.9596C38.7486 17.6468 39.0561 15.5078 38.6749 14.7879C38.5479 14.5338 38.5055 14.0041 38.4841 12.2788C38.4522 9.94951 38.3251 9.01781 37.8384 7.60926C37.0656 5.34327 35.6785 3.97762 33.7304 3.57557C33.3174 3.49087 33.0952 3.39572 33.0633 3.27912C32.714 2.08287 31.6553 1.20397 30.0245 0.748566C29.3464 0.568716 27.1442 0.483465 26.3082 0.611067ZM25.6091 7.21766C26.6255 7.46132 28.457 7.43987 29.7699 7.16486C32.4489 6.60386 34.0049 7.26001 34.9789 9.32471C35.5399 10.5105 35.7731 11.8976 35.7731 14.036C35.7731 16.9582 35.3705 19.3408 34.545 21.3521C33.0523 24.9414 30.2044 27.3983 27.5149 27.3983C25.7681 27.3983 23.7881 26.2867 22.3267 24.4651C20.7493 22.5066 19.8066 20.135 19.415 17.1386C19.2247 15.7306 19.1928 12.7232 19.3518 11.7178C19.7753 9.13441 20.7493 7.63071 22.3586 7.11207C22.9092 6.93167 24.6351 6.98446 25.6091 7.21766Z" fill="#C91111"/>
<path d="M21.7553 14.195C21.1728 14.3325 20.993 14.5338 21.0986 14.9364C21.1833 15.2752 21.4583 15.3703 21.9775 15.2328C22.1997 15.1696 22.8349 15.1162 23.3855 15.1162C23.936 15.1162 24.5713 15.169 24.7935 15.2328C25.2698 15.3599 25.5662 15.2856 25.7252 14.9996C25.905 14.6504 25.619 14.3325 24.9733 14.1845C24.2963 14.0256 22.4538 14.036 21.7553 14.195Z" fill="#C91111"/>
<path d="M29.9711 14.195C29.4206 14.322 29.1346 14.6713 29.304 14.9996C29.4629 15.2856 29.7594 15.3593 30.2357 15.2328C30.4579 15.1696 31.0931 15.1162 31.6437 15.1162C32.1942 15.1162 32.8295 15.169 33.0517 15.2328C33.5703 15.3703 33.8459 15.2752 33.9306 14.9364C34.0362 14.5343 33.8563 14.333 33.2744 14.195C32.6287 14.047 30.5855 14.047 29.9711 14.195Z" fill="#C91111"/>
<path d="M23.1847 15.7834C22.1469 16.1541 22.1579 17.4565 23.2056 17.8585C24.0317 18.1654 24.9739 17.6363 24.9739 16.863C24.9739 16.6513 24.9315 16.3972 24.8683 16.2916C24.6136 15.8147 23.7881 15.5606 23.1847 15.7834Z" fill="#C91111"/>
<path d="M30.9348 15.7196C30.8077 15.7405 30.5536 15.8994 30.3738 16.0688C29.7704 16.6298 30.0245 17.5934 30.8611 17.869C31.8775 18.2078 32.862 17.4136 32.5551 16.5033C32.3642 15.9104 31.6443 15.5716 30.9348 15.7196Z" fill="#C91111"/>
<path d="M26.0854 20.2933C26.0326 20.3885 26.5194 20.8016 26.9539 21.0238C27.3669 21.246 27.8855 21.1722 28.4146 20.8015C28.9443 20.4413 29.018 20.2191 28.5736 20.3038C28.1716 20.378 26.8692 20.3676 26.488 20.2823C26.2972 20.2405 26.1173 20.251 26.0854 20.2933Z" fill="#C91111"/>
<path d="M25.2175 23.2265C25.1328 23.4702 25.5668 23.8722 26.3186 24.2429C26.9115 24.5289 27.06 24.5603 27.6634 24.5179C28.6798 24.4332 29.9717 23.6495 29.8128 23.226C29.7171 22.9724 25.3127 22.9724 25.2175 23.2265Z" fill="#C91111"/>
<path d="M19.2566 28.8382C18.0813 29.6428 16.0699 30.6807 13.6873 31.718C10.4687 33.1155 8.86986 34.0263 8.20271 34.8205C6.78371 36.4936 6.00051 40.7072 5.70406 48.0766C5.57701 51.2848 5.61936 51.8672 6.07476 52.6609C6.40311 53.2219 7.18631 53.9418 7.80066 54.2174L8.29841 54.4506H27.5154H46.7324L47.3358 54.1541C48.1085 53.773 48.9242 52.8941 49.1887 52.1532C49.3477 51.6665 49.3796 51.3062 49.3477 49.5275C49.2525 42.042 48.3208 36.5893 46.8276 34.8211C46.1604 34.0269 44.5616 33.1166 41.3853 31.74C38.5369 30.5014 36.7268 29.5482 35.403 28.5951C34.3228 27.8119 33.984 27.9917 33.6452 29.5691C33.3487 30.9881 32.5336 33.423 31.8769 34.9052C31.2202 36.3556 29.9497 38.5688 29.8441 38.4417C29.8018 38.3994 29.6219 37.8169 29.4421 37.1503L29.1137 35.9431L29.3997 35.5724C29.6324 35.2655 29.6857 35.0642 29.7171 34.4185C29.7809 33.3493 29.6852 32.9571 29.2408 32.4808C28.8173 32.0045 28.3833 31.8456 27.5149 31.8456C26.6998 31.8456 26.2339 32.0045 25.8528 32.3961C25.3974 32.862 25.2918 33.2008 25.2918 34.122C25.2918 34.9586 25.3974 35.3716 25.7153 35.7104C25.9166 35.9222 25.9166 35.9436 25.5778 37.1608C25.3869 37.8488 25.2071 38.4313 25.1647 38.4632C25.0696 38.5583 23.7567 36.2505 23.1743 34.9267C22.4648 33.3383 21.7663 31.2736 21.4275 29.76C21.0139 27.8641 20.8021 27.7794 19.2566 28.8382ZM20.6855 32.6392C21.9241 36.4617 23.8832 39.8497 26.477 42.6448C27.4192 43.6612 27.61 43.6612 28.5522 42.6448C30.1829 40.887 31.4743 39.0236 32.5969 36.8214C33.6347 34.7677 34.5131 32.4594 34.9157 30.723L35.0427 30.1829L36.1653 30.8495C36.7686 31.2092 37.4143 31.5695 37.5837 31.6327L37.8906 31.7598V32.9137C37.8906 33.7711 37.8587 34.0676 37.7636 34.0676C37.6893 34.0676 37.372 34.1842 37.0755 34.3321C35.9425 34.8508 34.8733 36.1851 34.397 37.6673C34.0687 38.7261 32.5969 45.7985 32.5969 46.3601C32.5969 47.0058 32.7344 47.3765 33.1579 47.8214C33.4862 48.1602 34.4069 48.6789 34.7039 48.6789C34.7782 48.6789 35.0108 48.8164 35.2121 48.9962C35.8265 49.5363 36.7367 49.3669 37.086 48.6365C37.2977 48.1811 37.2977 48.0117 37.086 47.5569C36.7895 46.9321 35.9002 46.6675 35.3705 47.0487C34.9047 47.377 34.0786 46.9425 34.0786 46.3711C34.0786 45.6935 35.6879 38.4516 36.0162 37.6679C36.4293 36.6619 37.2972 35.7407 37.9962 35.5504C39.4361 35.1588 40.7913 36.2494 41.4266 38.2927C41.5641 38.7376 42.0195 40.7594 42.443 42.7818C43.015 45.4922 43.1948 46.519 43.1206 46.6461C43.0568 46.7522 42.8346 46.9216 42.6333 47.0377C42.2626 47.239 42.2417 47.239 41.8182 47.0481C40.8969 46.6246 40.0076 47.1537 40.0076 48.1069C40.0076 48.5199 40.0604 48.647 40.3673 48.9539C40.8859 49.4725 41.5426 49.4516 42.1779 48.8906C42.2945 48.785 42.6333 48.6261 42.9193 48.5304C43.9252 48.202 44.6556 47.3341 44.6661 46.4552C44.6661 45.8942 42.993 38.1651 42.6971 37.3813C42.0827 35.7401 41.0878 34.6286 39.8486 34.2051L39.3723 34.0461V33.264V32.4803L39.9333 32.7239C40.2298 32.8614 41.1615 33.2745 41.998 33.6452C43.5969 34.3442 45.0472 35.1593 45.545 35.6356C46.8474 36.8742 47.7576 42.3484 47.8638 49.6326C47.8957 51.4855 47.8957 51.4855 47.6097 51.9833C47.3875 52.343 47.1757 52.5443 46.7627 52.7456L46.2121 53.0206H27.5149H8.81706L8.26651 52.7456C7.85346 52.5443 7.64171 52.343 7.41951 51.9833L7.13351 51.4855L7.16541 49.5798C7.23966 43.8202 7.90681 38.6953 8.82751 36.6201C9.17676 35.8474 9.53701 35.4976 10.6486 34.831C11.3685 34.397 15.2757 32.5864 15.4875 32.5864C15.5194 32.5864 15.5507 35.0004 15.5507 37.9544V43.3329L15.0744 43.5342C14.7994 43.6398 14.4177 43.9258 14.1851 44.2013C12.9146 45.6412 13.3381 47.7906 15.064 48.7119C15.6783 49.0402 17.0121 49.0402 17.6154 48.7119C19.7857 47.5684 19.7225 44.5401 17.5203 43.5133L17.0335 43.2806V37.5738V31.867L18.018 31.3374C18.5477 31.0409 19.2038 30.6598 19.4684 30.4904L19.9447 30.1835L20.0822 30.6708C20.1564 30.9342 20.4314 31.8236 20.6855 32.6392Z" fill="#C91111"/>
</svg>
