<svg width="196" height="196" viewBox="0 0 196 196" fill="none" xmlns="http://www.w3.org/2000/svg">
<g clip-path="url(#clip0_101_100)">
<g opacity="0.7">
<path d="M2.40122 4.80247C3.72738 4.80247 4.80244 3.7274 4.80244 2.40124C4.80244 1.07507 3.72738 0 2.40122 0C1.07506 0 0 1.07507 0 2.40124C0 3.7274 1.07506 4.80247 2.40122 4.80247Z" fill="#223645"/>
<path d="M2.40122 32.1167C3.72738 32.1167 4.80244 31.0416 4.80244 29.7154C4.80244 28.3893 3.72738 27.3142 2.40122 27.3142C1.07506 27.3142 0 28.3893 0 29.7154C0 31.0416 1.07506 32.1167 2.40122 32.1167Z" fill="#223645"/>
<path d="M2.40122 59.4303C3.72738 59.4303 4.80244 58.3552 4.80244 57.029C4.80244 55.7029 3.72738 54.6278 2.40122 54.6278C1.07506 54.6278 0 55.7029 0 57.029C0 58.3552 1.07506 59.4303 2.40122 59.4303Z" fill="#223645"/>
<path d="M2.40122 86.7445C3.72738 86.7445 4.80244 85.6694 4.80244 84.3433C4.80244 83.0171 3.72738 81.942 2.40122 81.942C1.07506 81.942 0 83.0171 0 84.3433C0 85.6694 1.07506 86.7445 2.40122 86.7445Z" fill="#223645"/>
<path d="M2.40122 114.058C3.72738 114.058 4.80244 112.983 4.80244 111.657C4.80244 110.331 3.72738 109.256 2.40122 109.256C1.07506 109.256 0 110.331 0 111.657C0 112.983 1.07506 114.058 2.40122 114.058Z" fill="#223645"/>
<path d="M2.40122 141.372C3.72738 141.372 4.80244 140.297 4.80244 138.971C4.80244 137.644 3.72738 136.569 2.40122 136.569C1.07506 136.569 0 137.644 0 138.971C0 140.297 1.07506 141.372 2.40122 141.372Z" fill="#223645"/>
<path d="M2.40122 168.686C3.72738 168.686 4.80244 167.611 4.80244 166.285C4.80244 164.959 3.72738 163.884 2.40122 163.884C1.07506 163.884 0 164.959 0 166.285C0 167.611 1.07506 168.686 2.40122 168.686Z" fill="#223645"/>
<path d="M2.40122 196C3.72738 196 4.80244 194.925 4.80244 193.598C4.80244 192.272 3.72738 191.197 2.40122 191.197C1.07506 191.197 0 192.272 0 193.598C0 194.925 1.07506 196 2.40122 196Z" fill="#223645"/>
<path d="M29.7152 4.80247C31.0413 4.80247 32.1164 3.7274 32.1164 2.40124C32.1164 1.07507 31.0413 0 29.7152 0C28.389 0 27.3139 1.07507 27.3139 2.40124C27.3139 3.7274 28.389 4.80247 29.7152 4.80247Z" fill="#223645"/>
<path d="M29.7152 32.1167C31.0413 32.1167 32.1164 31.0416 32.1164 29.7154C32.1164 28.3893 31.0413 27.3142 29.7152 27.3142C28.389 27.3142 27.3139 28.3893 27.3139 29.7154C27.3139 31.0416 28.389 32.1167 29.7152 32.1167Z" fill="#223645"/>
<path d="M29.7152 59.4303C31.0413 59.4303 32.1164 58.3552 32.1164 57.029C32.1164 55.7029 31.0413 54.6278 29.7152 54.6278C28.389 54.6278 27.3139 55.7029 27.3139 57.029C27.3139 58.3552 28.389 59.4303 29.7152 59.4303Z" fill="#223645"/>
<path d="M29.7152 86.7445C31.0413 86.7445 32.1164 85.6694 32.1164 84.3433C32.1164 83.0171 31.0413 81.942 29.7152 81.942C28.389 81.942 27.3139 83.0171 27.3139 84.3433C27.3139 85.6694 28.389 86.7445 29.7152 86.7445Z" fill="#223645"/>
<path d="M29.7152 114.058C31.0413 114.058 32.1164 112.983 32.1164 111.657C32.1164 110.331 31.0413 109.256 29.7152 109.256C28.389 109.256 27.3139 110.331 27.3139 111.657C27.3139 112.983 28.389 114.058 29.7152 114.058Z" fill="#223645"/>
<path d="M29.7152 141.372C31.0413 141.372 32.1164 140.297 32.1164 138.971C32.1164 137.644 31.0413 136.569 29.7152 136.569C28.389 136.569 27.3139 137.644 27.3139 138.971C27.3139 140.297 28.389 141.372 29.7152 141.372Z" fill="#223645"/>
<path d="M29.7152 168.686C31.0413 168.686 32.1164 167.611 32.1164 166.285C32.1164 164.959 31.0413 163.884 29.7152 163.884C28.389 163.884 27.3139 164.959 27.3139 166.285C27.3139 167.611 28.389 168.686 29.7152 168.686Z" fill="#223645"/>
<path d="M29.7152 196C31.0413 196 32.1164 194.925 32.1164 193.598C32.1164 192.272 31.0413 191.197 29.7152 191.197C28.389 191.197 27.3139 192.272 27.3139 193.598C27.3139 194.925 28.389 196 29.7152 196Z" fill="#223645"/>
<path d="M57.0292 4.80247C58.3554 4.80247 59.4304 3.7274 59.4304 2.40124C59.4304 1.07507 58.3554 0 57.0292 0C55.7031 0 54.628 1.07507 54.628 2.40124C54.628 3.7274 55.7031 4.80247 57.0292 4.80247Z" fill="#223645"/>
<path d="M57.0292 32.1167C58.3554 32.1167 59.4304 31.0416 59.4304 29.7154C59.4304 28.3893 58.3554 27.3142 57.0292 27.3142C55.7031 27.3142 54.628 28.3893 54.628 29.7154C54.628 31.0416 55.7031 32.1167 57.0292 32.1167Z" fill="#223645"/>
<path d="M57.0292 59.4303C58.3554 59.4303 59.4304 58.3552 59.4304 57.029C59.4304 55.7029 58.3554 54.6278 57.0292 54.6278C55.7031 54.6278 54.628 55.7029 54.628 57.029C54.628 58.3552 55.7031 59.4303 57.0292 59.4303Z" fill="#223645"/>
<path d="M57.0292 86.7445C58.3554 86.7445 59.4304 85.6694 59.4304 84.3433C59.4304 83.0171 58.3554 81.942 57.0292 81.942C55.7031 81.942 54.628 83.0171 54.628 84.3433C54.628 85.6694 55.7031 86.7445 57.0292 86.7445Z" fill="#223645"/>
<path d="M57.0292 114.058C58.3554 114.058 59.4304 112.983 59.4304 111.657C59.4304 110.331 58.3554 109.256 57.0292 109.256C55.7031 109.256 54.628 110.331 54.628 111.657C54.628 112.983 55.7031 114.058 57.0292 114.058Z" fill="#223645"/>
<path d="M57.0292 141.372C58.3554 141.372 59.4304 140.297 59.4304 138.971C59.4304 137.644 58.3554 136.569 57.0292 136.569C55.7031 136.569 54.628 137.644 54.628 138.971C54.628 140.297 55.7031 141.372 57.0292 141.372Z" fill="#223645"/>
<path d="M57.0292 168.686C58.3554 168.686 59.4304 167.611 59.4304 166.285C59.4304 164.959 58.3554 163.884 57.0292 163.884C55.7031 163.884 54.628 164.959 54.628 166.285C54.628 167.611 55.7031 168.686 57.0292 168.686Z" fill="#223645"/>
<path d="M57.0292 196C58.3554 196 59.4304 194.925 59.4304 193.598C59.4304 192.272 58.3554 191.197 57.0292 191.197C55.7031 191.197 54.628 192.272 54.628 193.598C54.628 194.925 55.7031 196 57.0292 196Z" fill="#223645"/>
<path d="M84.3428 4.80247C85.669 4.80247 86.7441 3.7274 86.7441 2.40124C86.7441 1.07507 85.669 0 84.3428 0C83.0167 0 81.9416 1.07507 81.9416 2.40124C81.9416 3.7274 83.0167 4.80247 84.3428 4.80247Z" fill="#223645"/>
<path d="M84.3432 32.1167C85.6694 32.1167 86.7445 31.0416 86.7445 29.7154C86.7445 28.3893 85.6694 27.3142 84.3432 27.3142C83.0171 27.3142 81.942 28.3893 81.942 29.7154C81.942 31.0416 83.0171 32.1167 84.3432 32.1167Z" fill="#223645"/>
<path d="M84.3432 59.4303C85.6694 59.4303 86.7445 58.3552 86.7445 57.029C86.7445 55.7029 85.6694 54.6278 84.3432 54.6278C83.0171 54.6278 81.942 55.7029 81.942 57.029C81.942 58.3552 83.0171 59.4303 84.3432 59.4303Z" fill="#223645"/>
<path d="M84.3432 86.7445C85.6694 86.7445 86.7445 85.6694 86.7445 84.3433C86.7445 83.0171 85.6694 81.942 84.3432 81.942C83.0171 81.942 81.942 83.0171 81.942 84.3433C81.942 85.6694 83.0171 86.7445 84.3432 86.7445Z" fill="#223645"/>
<path d="M84.3432 114.058C85.6694 114.058 86.7445 112.983 86.7445 111.657C86.7445 110.331 85.6694 109.256 84.3432 109.256C83.0171 109.256 81.942 110.331 81.942 111.657C81.942 112.983 83.0171 114.058 84.3432 114.058Z" fill="#223645"/>
<path d="M84.3432 141.372C85.6694 141.372 86.7445 140.297 86.7445 138.971C86.7445 137.644 85.6694 136.569 84.3432 136.569C83.0171 136.569 81.942 137.644 81.942 138.971C81.942 140.297 83.0171 141.372 84.3432 141.372Z" fill="#223645"/>
<path d="M84.3432 168.686C85.6694 168.686 86.7445 167.611 86.7445 166.285C86.7445 164.959 85.6694 163.884 84.3432 163.884C83.0171 163.884 81.942 164.959 81.942 166.285C81.942 167.611 83.0171 168.686 84.3432 168.686Z" fill="#223645"/>
<path d="M84.3432 196C85.6694 196 86.7445 194.925 86.7445 193.598C86.7445 192.272 85.6694 191.197 84.3432 191.197C83.0171 191.197 81.942 192.272 81.942 193.598C81.942 194.925 83.0171 196 84.3432 196Z" fill="#223645"/>
<path d="M111.657 4.80247C112.983 4.80247 114.058 3.7274 114.058 2.40124C114.058 1.07507 112.983 0 111.657 0C110.331 0 109.256 1.07507 109.256 2.40124C109.256 3.7274 110.331 4.80247 111.657 4.80247Z" fill="#223645"/>
<path d="M111.657 32.1167C112.983 32.1167 114.058 31.0416 114.058 29.7154C114.058 28.3893 112.983 27.3142 111.657 27.3142C110.331 27.3142 109.256 28.3893 109.256 29.7154C109.256 31.0416 110.331 32.1167 111.657 32.1167Z" fill="#223645"/>
<path d="M111.657 59.4303C112.983 59.4303 114.058 58.3552 114.058 57.029C114.058 55.7029 112.983 54.6278 111.657 54.6278C110.331 54.6278 109.256 55.7029 109.256 57.029C109.256 58.3552 110.331 59.4303 111.657 59.4303Z" fill="#223645"/>
<path d="M111.657 86.7445C112.983 86.7445 114.058 85.6694 114.058 84.3433C114.058 83.0171 112.983 81.942 111.657 81.942C110.331 81.942 109.256 83.0171 109.256 84.3433C109.256 85.6694 110.331 86.7445 111.657 86.7445Z" fill="#223645"/>
<path d="M111.657 114.058C112.983 114.058 114.058 112.983 114.058 111.657C114.058 110.331 112.983 109.256 111.657 109.256C110.331 109.256 109.256 110.331 109.256 111.657C109.256 112.983 110.331 114.058 111.657 114.058Z" fill="#223645"/>
<path d="M111.657 141.372C112.983 141.372 114.058 140.297 114.058 138.971C114.058 137.644 112.983 136.569 111.657 136.569C110.331 136.569 109.256 137.644 109.256 138.971C109.256 140.297 110.331 141.372 111.657 141.372Z" fill="#223645"/>
<path d="M111.657 168.686C112.983 168.686 114.058 167.611 114.058 166.285C114.058 164.959 112.983 163.884 111.657 163.884C110.331 163.884 109.256 164.959 109.256 166.285C109.256 167.611 110.331 168.686 111.657 168.686Z" fill="#223645"/>
<path d="M111.657 196C112.983 196 114.058 194.925 114.058 193.598C114.058 192.272 112.983 191.197 111.657 191.197C110.331 191.197 109.256 192.272 109.256 193.598C109.256 194.925 110.331 196 111.657 196Z" fill="#223645"/>
<path d="M138.971 4.80247C140.297 4.80247 141.372 3.7274 141.372 2.40124C141.372 1.07507 140.297 0 138.971 0C137.644 0 136.569 1.07507 136.569 2.40124C136.569 3.7274 137.644 4.80247 138.971 4.80247Z" fill="#223645"/>
<path d="M138.971 32.1167C140.297 32.1167 141.372 31.0416 141.372 29.7154C141.372 28.3893 140.297 27.3142 138.971 27.3142C137.644 27.3142 136.569 28.3893 136.569 29.7154C136.569 31.0416 137.644 32.1167 138.971 32.1167Z" fill="#223645"/>
<path d="M138.971 59.4303C140.297 59.4303 141.372 58.3552 141.372 57.029C141.372 55.7029 140.297 54.6278 138.971 54.6278C137.644 54.6278 136.569 55.7029 136.569 57.029C136.569 58.3552 137.644 59.4303 138.971 59.4303Z" fill="#223645"/>
<path d="M138.971 86.7445C140.297 86.7445 141.372 85.6694 141.372 84.3433C141.372 83.0171 140.297 81.942 138.971 81.942C137.644 81.942 136.569 83.0171 136.569 84.3433C136.569 85.6694 137.644 86.7445 138.971 86.7445Z" fill="#223645"/>
<path d="M138.971 114.058C140.297 114.058 141.372 112.983 141.372 111.657C141.372 110.331 140.297 109.256 138.971 109.256C137.644 109.256 136.569 110.331 136.569 111.657C136.569 112.983 137.644 114.058 138.971 114.058Z" fill="#223645"/>
<path d="M138.971 141.372C140.297 141.372 141.372 140.297 141.372 138.971C141.372 137.644 140.297 136.569 138.971 136.569C137.644 136.569 136.569 137.644 136.569 138.971C136.569 140.297 137.644 141.372 138.971 141.372Z" fill="#223645"/>
<path d="M138.971 168.686C140.297 168.686 141.372 167.611 141.372 166.285C141.372 164.959 140.297 163.884 138.971 163.884C137.644 163.884 136.569 164.959 136.569 166.285C136.569 167.611 137.644 168.686 138.971 168.686Z" fill="#223645"/>
<path d="M138.971 196C140.297 196 141.372 194.925 141.372 193.598C141.372 192.272 140.297 191.197 138.971 191.197C137.644 191.197 136.569 192.272 136.569 193.598C136.569 194.925 137.644 196 138.971 196Z" fill="#223645"/>
<path d="M166.285 4.80247C167.611 4.80247 168.686 3.7274 168.686 2.40124C168.686 1.07507 167.611 0 166.285 0C164.959 0 163.884 1.07507 163.884 2.40124C163.884 3.7274 164.959 4.80247 166.285 4.80247Z" fill="#223645"/>
<path d="M166.285 32.1167C167.611 32.1167 168.686 31.0416 168.686 29.7154C168.686 28.3893 167.611 27.3142 166.285 27.3142C164.959 27.3142 163.884 28.3893 163.884 29.7154C163.884 31.0416 164.959 32.1167 166.285 32.1167Z" fill="#223645"/>
<path d="M166.285 59.4303C167.611 59.4303 168.686 58.3552 168.686 57.029C168.686 55.7029 167.611 54.6278 166.285 54.6278C164.959 54.6278 163.884 55.7029 163.884 57.029C163.884 58.3552 164.959 59.4303 166.285 59.4303Z" fill="#223645"/>
<path d="M166.285 86.7445C167.611 86.7445 168.686 85.6694 168.686 84.3433C168.686 83.0171 167.611 81.942 166.285 81.942C164.959 81.942 163.884 83.0171 163.884 84.3433C163.884 85.6694 164.959 86.7445 166.285 86.7445Z" fill="#223645"/>
<path d="M166.285 114.058C167.611 114.058 168.686 112.983 168.686 111.657C168.686 110.331 167.611 109.256 166.285 109.256C164.959 109.256 163.884 110.331 163.884 111.657C163.884 112.983 164.959 114.058 166.285 114.058Z" fill="#223645"/>
<path d="M166.285 141.372C167.611 141.372 168.686 140.297 168.686 138.971C168.686 137.644 167.611 136.569 166.285 136.569C164.959 136.569 163.884 137.644 163.884 138.971C163.884 140.297 164.959 141.372 166.285 141.372Z" fill="#223645"/>
<path d="M166.285 168.686C167.611 168.686 168.686 167.611 168.686 166.285C168.686 164.959 167.611 163.884 166.285 163.884C164.959 163.884 163.884 164.959 163.884 166.285C163.884 167.611 164.959 168.686 166.285 168.686Z" fill="#223645"/>
<path d="M166.285 196C167.611 196 168.686 194.925 168.686 193.598C168.686 192.272 167.611 191.197 166.285 191.197C164.959 191.197 163.884 192.272 163.884 193.598C163.884 194.925 164.959 196 166.285 196Z" fill="#223645"/>
<path d="M193.598 4.80247C194.925 4.80247 196 3.7274 196 2.40124C196 1.07507 194.925 0 193.598 0C192.272 0 191.197 1.07507 191.197 2.40124C191.197 3.7274 192.272 4.80247 193.598 4.80247Z" fill="#223645"/>
<path d="M193.598 32.1167C194.925 32.1167 196 31.0416 196 29.7154C196 28.3893 194.925 27.3142 193.598 27.3142C192.272 27.3142 191.197 28.3893 191.197 29.7154C191.197 31.0416 192.272 32.1167 193.598 32.1167Z" fill="#223645"/>
<path d="M193.598 59.4303C194.925 59.4303 196 58.3552 196 57.029C196 55.7029 194.925 54.6278 193.598 54.6278C192.272 54.6278 191.197 55.7029 191.197 57.029C191.197 58.3552 192.272 59.4303 193.598 59.4303Z" fill="#223645"/>
<path d="M193.598 86.7445C194.925 86.7445 196 85.6694 196 84.3433C196 83.0171 194.925 81.942 193.598 81.942C192.272 81.942 191.197 83.0171 191.197 84.3433C191.197 85.6694 192.272 86.7445 193.598 86.7445Z" fill="#223645"/>
<path d="M193.598 114.058C194.925 114.058 196 112.983 196 111.657C196 110.331 194.925 109.256 193.598 109.256C192.272 109.256 191.197 110.331 191.197 111.657C191.197 112.983 192.272 114.058 193.598 114.058Z" fill="#223645"/>
<path d="M193.598 141.372C194.925 141.372 196 140.297 196 138.971C196 137.644 194.925 136.569 193.598 136.569C192.272 136.569 191.197 137.644 191.197 138.971C191.197 140.297 192.272 141.372 193.598 141.372Z" fill="#223645"/>
<path d="M193.598 168.686C194.925 168.686 196 167.611 196 166.285C196 164.959 194.925 163.884 193.598 163.884C192.272 163.884 191.197 164.959 191.197 166.285C191.197 167.611 192.272 168.686 193.598 168.686Z" fill="#223645"/>
<path d="M193.598 196C194.925 196 196 194.925 196 193.598C196 192.272 194.925 191.197 193.598 191.197C192.272 191.197 191.197 192.272 191.197 193.598C191.197 194.925 192.272 196 193.598 196Z" fill="#223645"/>
</g>
</g>
<defs>
<clipPath id="clip0_101_100">
<rect width="196" height="196" fill="white"/>
</clipPath>
</defs>
</svg>
