<svg width="46" height="46" viewBox="0 0 46 46" fill="none" xmlns="http://www.w3.org/2000/svg">
<g clip-path="url(#clip0_27_505)">
<path d="M41.4381 7.94337H4.562C2.04638 7.94337 0 9.98966 0 12.5054V33.4946C0 36.0103 2.04638 38.0566 4.562 38.0566H41.438C43.9536 38.0566 45.9999 36.0103 45.9999 33.4946V12.5054C46 9.98966 43.9537 7.94337 41.4381 7.94337ZM42.9588 12.5054V33.4946C42.9588 33.7346 42.8912 33.9536 42.7916 34.1555L32.0408 23.4038L42.9557 12.489C42.9557 12.495 42.9588 12.4994 42.9588 12.5054ZM3.04133 33.4945V12.5054C3.04133 12.4994 3.04441 12.4951 3.04441 12.4891L13.9593 23.4039L3.20772 34.1554C3.10891 33.9535 3.04133 33.7346 3.04133 33.4945ZM23.4694 27.6749C23.2184 27.9258 22.7817 27.9258 22.5307 27.6749L5.84134 10.9847H40.1595L23.4694 27.6749ZM16.1096 25.5543L20.3804 29.8252C21.0806 30.5254 22.011 30.9107 23 30.9107C23.989 30.9107 24.9195 30.5254 25.6197 29.8252L29.8907 25.5543L39.3508 35.0153H6.64856L16.1096 25.5543Z" fill="#223A66"/>
</g>
<defs>
<clipPath id="clip0_27_505">
<rect width="46" height="46" fill="white"/>
</clipPath>
</defs>
</svg>
