<svg width="36" height="36" viewBox="0 0 36 36" fill="none" xmlns="http://www.w3.org/2000/svg">
<path d="M18 3.75C14.2207 3.75 10.5961 5.25133 7.92373 7.92373C5.25133 10.5961 3.75 14.2207 3.75 18C3.75 21.7793 5.25133 25.4039 7.92373 28.0763C10.5961 30.7487 14.2207 32.25 18 32.25C21.7793 32.25 25.4039 30.7487 28.0763 28.0763C30.7487 25.4039 32.25 21.7793 32.25 18C32.25 14.2207 30.7487 10.5961 28.0763 7.92373C25.4039 5.25133 21.7793 3.75 18 3.75Z" fill="#808080"/>
<path d="M19.929 21.7771H23.6168L24.1958 18.0308H19.9282V15.9833C19.9282 14.4271 20.4368 13.0471 21.8925 13.0471H24.2317V9.77783C23.8207 9.72233 22.9515 9.60083 21.309 9.60083C17.8793 9.60083 15.8685 11.4121 15.8685 15.5386V18.0308H12.3428V21.7771H15.8685V32.0738C16.5668 32.1788 17.274 32.2501 18 32.2501C18.6562 32.2501 19.2968 32.1901 19.929 32.1046V21.7771Z" fill="white"/>
</svg>
