<svg width="32" height="32" viewBox="0 0 32 32" fill="none" xmlns="http://www.w3.org/2000/svg">
<rect x="7.68" y="5.12012" width="20.48" height="21.76" fill="white"/>
<path d="M10.24 1.91992C5.6512 1.91992 1.92 5.65112 1.92 10.2399V21.7599C1.92 26.3487 5.6512 30.0799 10.24 30.0799H21.76C26.3488 30.0799 30.08 26.3487 30.08 21.7599V10.2399C30.08 5.65112 26.3488 1.91992 21.76 1.91992H10.24ZM23.68 7.03992C24.384 7.03992 24.96 7.61592 24.96 8.31992C24.96 9.02392 24.384 9.59992 23.68 9.59992C22.976 9.59992 22.4 9.02392 22.4 8.31992C22.4 7.61592 22.976 7.03992 23.68 7.03992ZM16 8.95992C19.8848 8.95992 23.04 12.1151 23.04 15.9999C23.04 19.8847 19.8848 23.0399 16 23.0399C12.1152 23.0399 8.96 19.8847 8.96 15.9999C8.96 12.1151 12.1152 8.95992 16 8.95992ZM16 10.2399C12.8256 10.2399 10.24 12.8255 10.24 15.9999C10.24 19.1743 12.8256 21.7599 16 21.7599C19.1744 21.7599 21.76 19.1743 21.76 15.9999C21.76 12.8255 19.1744 10.2399 16 10.2399Z" fill="#808080"/>
</svg>
