<svg width="38" height="38" viewBox="0 0 38 38" fill="none" xmlns="http://www.w3.org/2000/svg">
<rect x="10.1333" y="8.8667" width="20.2667" height="19" fill="white"/>
<path d="M19 3.80005C10.6058 3.80005 3.8 10.6058 3.8 19.0001C3.8 27.3943 10.6058 34.2001 19 34.2001C27.3942 34.2001 34.2 27.3943 34.2 19.0001C34.2 10.6058 27.3942 3.80005 19 3.80005ZM13.2949 10.6438C14.3615 10.6438 15.0721 11.3544 15.0721 12.3019C15.0721 13.2494 14.3615 13.96 13.1771 13.96C12.1106 13.9612 11.4 13.2494 11.4 12.3019C11.4 11.3544 12.1106 10.6438 13.2949 10.6438ZM15.2 25.3334H11.4V15.2H15.2V25.3334ZM27.8667 25.3334H24.2896V19.7955C24.2896 18.2641 23.3358 17.9107 22.9786 17.9107C22.6214 17.9107 21.4282 18.1463 21.4282 19.7955C21.4282 20.0311 21.4282 25.3334 21.4282 25.3334H17.7333V15.2H21.4295V16.6137C21.9057 15.789 22.8595 15.2 24.6481 15.2C26.4366 15.2 27.8667 16.6137 27.8667 19.7955V25.3334Z" fill="#808080"/>
</svg>
