<svg width="41" height="41" viewBox="0 0 41 41" fill="none" xmlns="http://www.w3.org/2000/svg">
<g clip-path="url(#clip0_27_498)">
<path d="M31.1411 25.0684C30.2254 24.8463 29.3029 25.4185 29.086 26.3359C28.8673 27.2533 29.4361 28.1741 30.3535 28.391C35.6595 29.65 37.5831 31.512 37.5831 32.4585C37.5831 34.4999 30.7704 37.5834 20.5001 37.5834C10.2315 37.5834 3.41711 34.4999 3.41711 32.4585C3.41711 31.512 5.34239 29.65 10.6449 28.391C11.5639 28.1741 12.1311 27.2533 11.9124 26.3359C11.6955 25.4185 10.773 24.8462 9.85735 25.0684C3.5008 26.5751 0.000488281 29.199 0.000488281 32.4585C0.000488281 38.0651 10.3152 41 20.5001 41C30.6867 41 40.9997 38.0651 40.9997 32.4585C40.9997 29.199 37.4994 26.5751 31.1411 25.0684Z" fill="#223A66"/>
<path d="M20.5008 13.6675C21.4437 13.6675 22.209 12.9023 22.209 11.9593C22.209 11.0163 21.4437 10.251 20.5008 10.251C19.5578 10.251 18.7925 11.0163 18.7925 11.9593C18.7925 12.9023 19.5578 13.6675 20.5008 13.6675Z" fill="#223A66"/>
<path d="M18.2765 31.8319L18.9718 33.2224C19.2622 33.8015 19.8533 34.1671 20.5007 34.1671C21.1481 34.1671 21.7392 33.8015 22.0296 33.2224L23.5021 30.2773C25.2942 26.6915 27.5047 23.2186 29.6418 19.86L30.6155 18.3277C31.8215 16.4212 32.4588 14.2192 32.4588 11.9591C32.4588 8.55618 31.0016 5.30355 28.4614 3.03498C25.9228 0.768096 22.508 -0.318303 19.1034 0.0814395C13.7871 0.686178 9.39681 4.96715 8.6605 10.2595C8.22489 13.3959 9.009 16.5102 10.8659 19.0316C13.7632 22.9572 16.025 27.3254 18.2765 31.8319ZM20.5007 6.8343C23.3262 6.8343 25.6256 9.13369 25.6256 11.9592C25.6256 14.7847 23.3262 17.0841 20.5007 17.0841C17.6752 17.0841 15.3758 14.7847 15.3758 11.9592C15.3758 9.13369 17.6752 6.8343 20.5007 6.8343Z" fill="#223A66"/>
</g>
<defs>
<clipPath id="clip0_27_498">
<rect width="41" height="41" fill="white"/>
</clipPath>
</defs>
</svg>
