<svg width="61" height="61" viewBox="0 0 61 61" fill="none" xmlns="http://www.w3.org/2000/svg">
<path fill-rule="evenodd" clip-rule="evenodd" d="M6.70172 54.5125L10.0754 42.1962C7.99409 38.5921 6.89958 34.5021 6.90084 30.3132C6.9071 17.2079 17.5716 6.54588 30.6781 6.54588C37.0385 6.54839 43.007 9.02417 47.4964 13.5161C51.9847 18.0094 54.4567 23.9803 54.4542 30.3319C54.4492 43.4372 43.7821 54.1005 30.6781 54.1005H30.6681C26.6896 54.0992 22.7787 53.1011 19.3061 51.2064L6.70172 54.5125Z" fill="white"/>
<path fill-rule="evenodd" clip-rule="evenodd" d="M6.70171 55.1386C6.53641 55.1386 6.37611 55.0735 6.25715 54.9533C6.10061 54.7942 6.03925 54.5626 6.0981 54.3484L9.40291 42.2813C7.35416 38.6422 6.27343 34.5096 6.27593 30.3144C6.28094 16.8623 17.2272 5.91972 30.6781 5.91972C37.2026 5.92223 43.3326 8.46313 47.9397 13.0741C52.5469 17.6863 55.0828 23.815 55.0803 30.3319C55.0753 43.7828 44.1278 54.7266 30.6781 54.7266C26.6846 54.7254 22.7336 53.7398 19.2272 51.8751L6.86075 55.1173C6.80816 55.1324 6.75556 55.1386 6.70171 55.1386Z" fill="white"/>
<path fill-rule="evenodd" clip-rule="evenodd" d="M30.6781 6.54587C37.0385 6.54838 43.007 9.02416 47.4964 13.5161C51.9847 18.0094 54.4567 23.9803 54.4542 30.3319C54.4492 43.4372 43.7821 54.1005 30.6781 54.1005H30.6681C26.6896 54.0992 22.7787 53.1011 19.3061 51.2064L6.70172 54.5125L10.0754 42.1962C7.99409 38.5921 6.89958 34.5021 6.90084 30.3132C6.9071 17.2079 17.5716 6.54587 30.6781 6.54587ZM30.6781 5.29358C16.8829 5.29358 5.6548 16.5166 5.64854 30.3132C5.64729 34.5296 6.71174 38.6847 8.73044 42.3627L5.49326 54.1831C5.37554 54.6152 5.49576 55.076 5.81134 55.3941C6.04928 55.6345 6.37112 55.766 6.70172 55.766C6.80817 55.766 6.91461 55.7522 7.01981 55.7247L19.1508 52.5439C22.6923 54.3822 26.662 55.3528 30.6681 55.354C44.4734 55.354 55.7015 44.1297 55.7077 30.3332C55.7102 23.6472 53.1092 17.3607 48.3843 12.632C43.6569 7.90211 37.3691 5.29608 30.6781 5.29358Z" fill="#CFD8DC"/>
<path fill-rule="evenodd" clip-rule="evenodd" d="M44.6562 16.3538C40.9244 12.6195 35.9641 10.562 30.6844 10.5607C19.7844 10.5607 10.9194 19.422 10.9144 30.3144C10.9132 34.0475 11.9576 37.6817 13.9362 40.8287L14.4071 41.5763L12.4097 48.8659L19.8896 46.9048L20.6122 47.3331C23.6452 49.1339 27.1241 50.0856 30.6706 50.0869H30.6781C41.5706 50.0869 50.4356 41.2244 50.4393 30.3307C50.4406 25.0523 48.3881 20.0882 44.6562 16.3538Z" fill="#40C351"/>
<path fill-rule="evenodd" clip-rule="evenodd" d="M24.7347 20.3775C24.2902 19.3881 23.8218 19.3681 23.3973 19.3506C23.0504 19.3356 22.6547 19.3368 22.2589 19.3368C21.8632 19.3368 21.2195 19.4858 20.6748 20.0807C20.13 20.6755 18.5947 22.1119 18.5947 25.0347C18.5947 27.9576 20.7236 30.7828 21.0204 31.1785C21.3172 31.5742 25.1304 37.7643 31.169 40.1462C36.1869 42.1248 37.2088 41.7316 38.2983 41.6326C39.3878 41.5337 41.8135 40.1963 42.3082 38.8087C42.8028 37.4212 42.8028 36.2327 42.655 35.9848C42.506 35.7368 42.1103 35.5891 41.5167 35.291C40.9231 34.993 38.0015 33.5566 37.4568 33.3587C36.912 33.1609 36.5163 33.0619 36.1193 33.6568C35.7236 34.2504 34.5853 35.5891 34.2384 35.9848C33.8915 36.3818 33.5446 36.4319 32.951 36.1338C32.3574 35.8358 30.4439 35.2096 28.1735 33.1859C26.4078 31.6118 25.2156 29.667 24.8687 29.0721C24.5218 28.4785 24.8311 28.1567 25.1292 27.8599C25.3959 27.5932 25.7228 27.1661 26.0208 26.8193C26.3176 26.4724 26.4166 26.2244 26.6144 25.8287C26.8123 25.4317 26.7133 25.0848 26.5643 24.788C26.4178 24.49 25.2632 21.5521 24.7347 20.3775Z" fill="white"/>
</svg>
